<svg width="32" height="32" viewBox="0 0 32 32" fill="none" xmlns="http://www.w3.org/2000/svg">
<g clip-path="url(#clip0_3_20)">
<rect width="32.0625" height="32" rx="5.5" fill="url(#paint0_linear_3_20)"/>
<path d="M18.2329 5.294C23.6019 5.294 26.2864 7.34917 26.2864 11.4595C26.2864 12.6002 26.0898 13.8588 25.6964 15.2355C24.6934 18.7755 23.1693 21.3223 21.1239 22.876C19.0983 24.41 16.5219 25.177 13.3949 25.177C8.04559 25.177 5.37092 23.1317 5.37092 19.041C5.37092 17.8807 5.56759 16.6122 5.96092 15.2355C6.96392 11.6955 8.47826 9.1585 10.5039 7.6245C12.5493 6.07083 15.1256 5.294 18.2329 5.294ZM17.9084 8.008C17.4561 8.008 17.0234 8.20467 16.6104 8.598C16.2171 8.99133 15.7943 9.719 15.3419 10.781C14.9093 11.8233 14.4274 13.3082 13.8964 15.2355C13.1491 17.9692 12.7754 19.8965 12.7754 21.0175C12.7754 21.5682 12.8541 21.9517 13.0114 22.168C13.1884 22.3843 13.4441 22.4925 13.7784 22.4925C14.2308 22.4925 14.6536 22.2958 15.0469 21.9025C15.4599 21.5092 15.8828 20.7815 16.3154 19.7195C16.7678 18.6575 17.2496 17.1628 17.7609 15.2355C18.5279 12.4232 18.9114 10.4958 18.9114 9.4535C18.9114 8.9225 18.8229 8.54883 18.6459 8.3325C18.4886 8.11617 18.2428 8.008 17.9084 8.008Z" fill="white"/>
</g>
<defs>
<linearGradient id="paint0_linear_3_20" x1="16.0312" y1="0" x2="16.0313" y2="32" gradientUnits="userSpaceOnUse">
<stop stop-color="#9256DC"/>
<stop offset="1" stop-color="#FF7AD9"/>
</linearGradient>
<clipPath id="clip0_3_20">
<rect width="32" height="32" fill="white"/>
</clipPath>
</defs>
</svg>
